<?xml version="1.0" encoding="UTF-8"?>
<svg version="1.1" xmlns="http://www.w3.org/2000/svg" width="200" height="200">
<path d="M0 0 C5.66965347 4.96094678 6.68862334 10.46847583 7.18359375 17.671875 C7.36009624 25.02268471 7.32779974 33.30805962 2.875 39.5 C-0.7811841 42.67929052 -3.27093258 43.19846315 -8 44 C-8.33 45.65 -8.66 47.3 -9 49 C-7.865625 48.938125 -6.73125 48.87625 -5.5625 48.8125 C1.04229275 48.8125 7.7072849 51.03046368 13 55 C16.0904287 58.24118132 17.89355038 60.65821512 19.3828125 64.83984375 C22.35457036 70.88827774 28.36747232 72.50922569 34.3125 74.875 C35.42818359 75.34679687 36.54386719 75.81859375 37.69335938 76.3046875 C43.05759995 78.54323247 48.36022495 80.58395258 54 82 C54.04241723 84.33294775 54.04092937 86.66702567 54 89 C53 90 53 90 50.0625 90.125 C47 90 47 90 45 89 C45 88.01 45 87.02 45 86 C44.36707031 85.91878906 43.73414063 85.83757812 43.08203125 85.75390625 C38.7040282 84.68298789 34.77735795 82.80650375 30.6875 80.9375 C29.85154297 80.56044922 29.01558594 80.18339844 28.15429688 79.79492188 C26.10072738 78.86788193 24.04943713 77.93613122 22 77 C22.33 77.99 22.66 78.98 23 80 C24.15216229 93.86086152 24.33366786 110.74244024 15.62109375 122.2578125 C13.26685526 124.78790977 11.0666102 126.39699921 8 128 C7.34 128 6.68 128 6 128 C6.3609375 128.91523438 6.721875 129.83046875 7.09375 130.7734375 C7.5578125 131.96195313 8.021875 133.15046875 8.5 134.375 C8.9640625 135.55835938 9.428125 136.74171875 9.90625 137.9609375 C11 141 11 141 11 143 C11.90492187 143.03867187 11.90492187 143.03867187 12.828125 143.078125 C19.33546326 143.5399361 19.33546326 143.5399361 22.4375 145.6875 C26.74162262 152.05760148 26.36632827 158.90251072 26.375 166.3125 C26.39949219 167.40240234 26.42398438 168.49230469 26.44921875 169.61523438 C26.47314871 176.24782143 26.06577968 182.48798727 22 188 C18.29835703 189.96537955 14.94302555 190 10.8125 190 C6.86374857 188.59599949 4.80265896 186.70055274 3 183 C-0.41159703 169.70714523 0.70575329 157.88274014 5 145 C4.26826437 142.53505528 3.48151812 140.20482653 2.5625 137.8125 C2.31951172 137.15830078 2.07652344 136.50410156 1.82617188 135.83007812 C1.2256707 134.21696714 0.61390797 132.6080565 0 131 C-0.62567871 131.00523682 -1.25135742 131.01047363 -1.89599609 131.01586914 C-4.72232057 131.03661618 -7.54862905 131.04965286 -10.375 131.0625 C-11.35984375 131.07087891 -12.3446875 131.07925781 -13.359375 131.08789062 C-14.30039063 131.09111328 -15.24140625 131.09433594 -16.2109375 131.09765625 C-17.08024902 131.10289307 -17.94956055 131.10812988 -18.84521484 131.11352539 C-21 131 -21 131 -23 130 C-23.17015625 130.66644531 -23.3403125 131.33289063 -23.515625 132.01953125 C-24.84453067 137.07361397 -26.32090585 141.81624317 -28.375 146.625 C-30.21287276 151.52137044 -29.86924221 153.9824671 -27.8828125 158.71484375 C-24.43652355 167.63554745 -25.92989195 178.8952714 -28 188 C-30.91214836 194.45607418 -30.91214836 194.45607418 -34 196 C-39.1350782 196.57883329 -43.50636252 196.85350713 -48.0625 194.25 C-54.05683859 184.19498042 -52.46145161 170.84296799 -50.73046875 159.76171875 C-49.75168466 156.06118211 -48.35480273 153.01610205 -45.25 150.6875 C-42.13143415 149.73460488 -39.23765175 149.87547493 -36 150 C-35.62875 148.14375 -35.62875 148.14375 -35.25 146.25 C-33.95181648 140.35173142 -31.98560032 134.69655237 -30 129 C-30.51949219 128.78085938 -31.03898437 128.56171875 -31.57421875 128.3359375 C-39.64105038 124.66784031 -42.92858609 119.86735288 -46.203125 111.85546875 C-48.38092463 104.05168676 -48.12842966 95.9758469 -48.0625 87.9375 C-48.05798828 86.88111328 -48.05347656 85.82472656 -48.04882812 84.73632812 C-48.03715918 82.15749092 -48.02078885 79.57877706 -48 77 C-50.54425853 78.2449341 -53.08534361 79.49573888 -55.625 80.75 C-56.33785156 81.09804687 -57.05070312 81.44609375 -57.78515625 81.8046875 C-61.1318607 83.46268787 -64.19129546 85.13079059 -67.28515625 87.24609375 C-70.72088114 89.46572033 -72.98685393 89.39344569 -77 89 C-78 88 -78 88 -78.1875 85.0625 C-78 82 -78 82 -76 80 C-75.11957031 80.03480469 -74.23914063 80.06960937 -73.33203125 80.10546875 C-69.1149372 79.97198512 -66.25516708 78.3655182 -62.6875 76.3125 C-61.36202827 75.56892287 -60.0365076 74.825433 -58.7109375 74.08203125 C-58.07510742 73.72061035 -57.43927734 73.35918945 -56.78417969 72.98681641 C-55.27220979 72.1505572 -53.72130202 71.3853091 -52.1640625 70.63671875 C-47.09635364 68.18704553 -45.23870469 66.21171426 -43.06640625 61.05859375 C-40.1432352 55.41569578 -34.90486795 52.00656422 -29 50.0625 C-24.56533556 48.93667188 -20.55635694 48.74686906 -16 49 C-16 47.35 -16 45.7 -16 44 C-17.216875 43.79375 -18.43375 43.5875 -19.6875 43.375 C-24.36998516 42.19816302 -26.33891975 40.06988744 -29 36 C-32.64105766 27.46988965 -32.46023534 15.74879058 -30.1953125 6.83203125 C-27.77564004 1.85084347 -24.41980244 -0.55876535 -19.25390625 -2.4140625 C-12.60181127 -4.14337662 -6.18457459 -2.76733507 0 0 Z " fill="#424342" transform="translate(112,3)"/>
<path d="M0 0 C5.66965347 4.96094678 6.68862334 10.46847583 7.18359375 17.671875 C7.35977812 25.00943565 7.30755141 33.27644403 2.9375 39.5 C-2.40499172 44.04680146 -9.01263761 44.44129197 -15.86328125 44.25 C-20.61156273 43.69444239 -23.96144116 42.03855884 -27.3125 38.6875 C-32.61236836 30.24696891 -31.97016375 19.6170062 -31 10 C-29.7767008 5.1840017 -28.0301354 2.36986706 -23.91015625 -0.41015625 C-15.91355939 -4.44262817 -8.03105759 -3.59355797 0 0 Z " fill="#0D8E98" transform="translate(112,3)"/>
<path d="M0 0 C3.9213678 2.800977 5.50196172 5.50669998 7 10 C7.414084 14.26267271 7.32437134 18.53169548 7.3125 22.8125 C7.32861328 23.96298828 7.34472656 25.11347656 7.36132812 26.29882812 C7.36922652 40.08152511 7.36922652 40.08152511 2.58325195 45.64770508 C-0.87312962 48.59988666 -4.67768363 48.2930384 -9 48 C-12.98066095 46.42275698 -14.60667274 45.58999089 -17 42 C-18.36542169 35.73201757 -18.22157507 29.44744951 -18.25 23.0625 C-18.270625 21.90814453 -18.29125 20.75378906 -18.3125 19.56445312 C-18.37255711 6.47950924 -18.37255711 6.47950924 -13.15234375 1.09375 C-8.97556915 -1.02874889 -4.54066004 -0.72084662 0 0 Z " fill="#0E8D97" transform="translate(105,69)"/>
<path d="M0 0 C3.86801711 2.677858 4.85685404 5.52388417 6 10 C6.34166159 14.10628692 6.37017985 18.19368125 6.375 22.3125 C6.39949219 23.40240234 6.42398438 24.49230469 6.44921875 25.61523438 C6.47314871 32.24782143 6.06577968 38.48798727 2 44 C-1.70164297 45.96537955 -5.05697445 46 -9.1875 46 C-13.13625143 44.59599949 -15.19734104 42.70055274 -17 39 C-19.91204776 27.65357555 -20.54199205 14.99129749 -16 4 C-11.83019762 -1.51453539 -6.32852825 -2.0113927 0 0 Z " fill="#0D8E98" transform="translate(132,147)"/>
<path d="M0 0 C5.34837892 4.74060859 6.29367505 10.32582423 6.75 17.19921875 C6.75 26.59992862 6.04860803 35.45412882 0.75 43.4375 C-3.22894998 45.42697499 -7.92244088 44.95030325 -12.25 44.4375 C-15.84673776 42.38222128 -16.88707273 40.74828519 -17.984375 36.78515625 C-20.01618123 26.11817353 -21.00954475 12.5555714 -15.78515625 2.6640625 C-11.92796976 -2.93033012 -5.80301531 -2.7899112 0 0 Z " fill="#0D8E98" transform="translate(79.25,154.5625)"/>
<path d="M0 0 C7.07576441 2.20449371 13.7075873 5.01879039 20.42578125 8.12695312 C24.9016405 10.16458612 29.23337719 11.77989628 34 13 C34.04241723 15.33294775 34.04092937 17.66702567 34 20 C33 21 33 21 30.0625 21.125 C27 21 27 21 25 20 C25 19.01 25 18.02 25 17 C24.36449219 16.91105469 23.72898438 16.82210937 23.07421875 16.73046875 C18.77948556 15.70999212 14.86251058 14.04821882 10.8125 12.3125 C9.99330078 11.98572266 9.17410156 11.65894531 8.33007812 11.32226562 C2.37405831 8.75848097 2.37405831 8.75848097 0.44921875 4.85546875 C0 2 0 2 0 0 Z " fill="#2A2B2A" transform="translate(132,72)"/>
<path d="M0 0 C0.5 3.1875 0.5 3.1875 0 7 C-2.69667132 9.14633023 -4.9506301 10.46672528 -8 12 C-9.28035786 12.68038176 -10.55886468 13.36425333 -11.8359375 14.05078125 C-14.51703414 15.49178658 -17.20637886 16.91516922 -19.90234375 18.328125 C-22.79257974 19.69710912 -22.79257974 19.69710912 -24 21 C-27.5 21.125 -27.5 21.125 -31 21 C-32 20 -32 20 -32.1875 17.0625 C-32 14 -32 14 -30 12 C-29.12085938 12.03609375 -28.24171875 12.0721875 -27.3359375 12.109375 C-23.08976858 11.97015635 -20.21345125 10.32141956 -16.625 8.25 C-15.30243596 7.51499014 -13.97952213 6.78060929 -12.65625 6.046875 C-12.0271875 5.69302734 -11.398125 5.33917969 -10.75 4.97460938 C-1.81763527 0 -1.81763527 0 0 0 Z " fill="#2A2B2A" transform="translate(66,71)"/>
<path d="M0 0 C1.98 0 3.96 0 6 0 C4.48526781 7.98676972 1.83197448 15.40122878 -1 23 C-5 23 -5 23 -7 22 C-5.83107109 14.1140915 -3.26456103 7.25181115 0 0 Z " fill="#2A2B2A" transform="translate(83,132)"/>
<path d="M0 0 C0.8394882 2.10171867 1.67139656 4.20646625 2.5 6.3125 C2.9640625 7.48425781 3.428125 8.65601563 3.90625 9.86328125 C5 13 5 13 5 16 C3.35 16.66 1.7 17.32 0 18 C-0.81832722 16.10667466 -1.62942268 14.21022267 -2.4375 12.3125 C-2.88996094 11.25675781 -3.34242187 10.20101562 -3.80859375 9.11328125 C-4.85447455 6.38027471 -5.53520748 3.87957663 -6 1 C-4 0 -4 0 0 0 Z " fill="#2A2B2A" transform="translate(118,131)"/>
<path d="M0 0 C3 0.125 3 0.125 4 1.125 C4.125 4.625 4.125 4.625 4 8.125 C3 9.125 3 9.125 0.0625 9.25 C-3 9.125 -3 9.125 -5 8.125 C-3.98705255 0.16612719 -3.98705255 0.16612719 0 0 Z " fill="#0E8D97" transform="translate(162,83.875)"/>
<path d="M0 0 C0.78375 0.04125 1.5675 0.0825 2.375 0.125 C4.5 6.875 4.5 6.875 3.375 9.125 C1.04205225 9.16741723 -1.29202567 9.16592937 -3.625 9.125 C-4.625 8.125 -4.625 8.125 -4.8125 5.1875 C-4.57390036 1.29037256 -3.98646018 0.18983144 0 0 Z " fill="#0E8E98" transform="translate(38.625,82.875)"/>
<path d="M0 0 C2.31 0 4.62 0 7 0 C7 1.98 7 3.96 7 6 C4.69 6 2.38 6 0 6 C0 4.02 0 2.04 0 0 Z " fill="#292F2E" transform="translate(96,46)"/>
</svg>
